<?xml version="1.0" encoding="UTF-8" standalone="no"?>
<!DOCTYPE svg PUBLIC "-//W3C//DTD SVG 1.1//EN"
 "http://www.w3.org/Graphics/SVG/1.1/DTD/svg11.dtd">
<!-- Generated by graphviz version 2.38.0 (20140413.2041)
 -->
<!-- Title: G Pages: 1 -->
<svg width="790pt" height="338pt"
 viewBox="0.00 0.00 789.86 338.00" xmlns="http://www.w3.org/2000/svg" xmlns:xlink="http://www.w3.org/1999/xlink">
<g id="graph0" class="graph" transform="scale(1 1) rotate(0) translate(4 334)">
<title>G</title>
<polygon fill="white" stroke="none" points="-4,4 -4,-334 785.856,-334 785.856,4 -4,4"/>
<g id="clust1" class="cluster"><title>cluster_Global</title>
<path fill="none" stroke="gray" d="M549.856,-8C549.856,-8 761.856,-8 761.856,-8 767.856,-8 773.856,-14 773.856,-20 773.856,-20 773.856,-310 773.856,-310 773.856,-316 767.856,-322 761.856,-322 761.856,-322 549.856,-322 549.856,-322 543.856,-322 537.856,-316 537.856,-310 537.856,-310 537.856,-20 537.856,-20 537.856,-14 543.856,-8 549.856,-8"/>
<text text-anchor="middle" x="655.856" y="-309.2" font-family="Times New Roman,serif" font-size="11.00" fill="gray">Global</text>
</g>
<g id="clust2" class="cluster"><title>cluster_\Slothsoft</title>
<path fill="none" stroke="gray" d="M557.856,-16C557.856,-16 753.856,-16 753.856,-16 759.856,-16 765.856,-22 765.856,-28 765.856,-28 765.856,-282 765.856,-282 765.856,-288 759.856,-294 753.856,-294 753.856,-294 557.856,-294 557.856,-294 551.856,-294 545.856,-288 545.856,-282 545.856,-282 545.856,-28 545.856,-28 545.856,-22 551.856,-16 557.856,-16"/>
<text text-anchor="middle" x="655.856" y="-281.2" font-family="Times New Roman,serif" font-size="11.00" fill="gray">Slothsoft</text>
</g>
<g id="clust3" class="cluster"><title>cluster_\Slothsoft\WebRTC</title>
<path fill="none" stroke="gray" d="M565.856,-24C565.856,-24 745.856,-24 745.856,-24 751.856,-24 757.856,-30 757.856,-36 757.856,-36 757.856,-254 757.856,-254 757.856,-260 751.856,-266 745.856,-266 745.856,-266 565.856,-266 565.856,-266 559.856,-266 553.856,-260 553.856,-254 553.856,-254 553.856,-36 553.856,-36 553.856,-30 559.856,-24 565.856,-24"/>
<text text-anchor="middle" x="655.856" y="-253.2" font-family="Times New Roman,serif" font-size="11.00" fill="gray">WebRTC</text>
</g>
<g id="clust4" class="cluster"><title>cluster_\Slothsoft\WebRTC\Executables</title>
<path fill="none" stroke="gray" d="M573.856,-112C573.856,-112 737.856,-112 737.856,-112 743.856,-112 749.856,-118 749.856,-124 749.856,-124 749.856,-226 749.856,-226 749.856,-232 743.856,-238 737.856,-238 737.856,-238 573.856,-238 573.856,-238 567.856,-238 561.856,-232 561.856,-226 561.856,-226 561.856,-124 561.856,-124 561.856,-118 567.856,-112 573.856,-112"/>
<text text-anchor="middle" x="655.856" y="-225.2" font-family="Times New Roman,serif" font-size="11.00" fill="gray">Executables</text>
</g>
<g id="clust5" class="cluster"><title>cluster_\Slothsoft\WebRTC\Assets</title>
<path fill="none" stroke="gray" d="M604.356,-32C604.356,-32 707.356,-32 707.356,-32 713.356,-32 719.356,-38 719.356,-44 719.356,-44 719.356,-92 719.356,-92 719.356,-98 713.356,-104 707.356,-104 707.356,-104 604.356,-104 604.356,-104 598.356,-104 592.356,-98 592.356,-92 592.356,-92 592.356,-44 592.356,-44 592.356,-38 598.356,-32 604.356,-32"/>
<text text-anchor="middle" x="655.856" y="-91.2" font-family="Times New Roman,serif" font-size="11.00" fill="gray">Assets</text>
</g>
<!-- \\Slothsoft\\WebRTC\\Executables\\RoomExecutable -->
<g id="node1" class="node"><title>\\Slothsoft\\WebRTC\\Executables\\RoomExecutable</title>
<polygon fill="none" stroke="black" points="711.356,-210 600.356,-210 600.356,-174 711.356,-174 711.356,-210"/>
<text text-anchor="middle" x="655.856" y="-189.2" font-family="Courier,monospace" font-size="11.00">RoomExecutable</text>
</g>
<!-- \\Slothsoft\\Farah\\Module\\Executables\\ExecutableDOMWriterBase -->
<g id="node4" class="node"><title>\\Slothsoft\\Farah\\Module\\Executables\\ExecutableDOMWriterBase</title>
<ellipse fill="none" stroke="black" cx="248.928" cy="-192" rx="248.856" ry="18"/>
<text text-anchor="middle" x="248.928" y="-188.3" font-family="Times New Roman,serif" font-size="14.00" fill="gray">\Slothsoft\Farah\Module\Executables\ExecutableDOMWriterBase</text>
</g>
<!-- \\Slothsoft\\WebRTC\\Executables\\RoomExecutable&#45;&gt;\\Slothsoft\\Farah\\Module\\Executables\\ExecutableDOMWriterBase -->
<g id="edge1" class="edge"><title>\\Slothsoft\\WebRTC\\Executables\\RoomExecutable&#45;&gt;\\Slothsoft\\Farah\\Module\\Executables\\ExecutableDOMWriterBase</title>
<path fill="none" stroke="black" d="M600.245,-192C574.9,-192 542.756,-192 508.266,-192"/>
<polygon fill="none" stroke="black" points="507.988,-188.5 497.988,-192 507.988,-195.5 507.988,-188.5"/>
</g>
<!-- \\Slothsoft\\WebRTC\\Executables\\WebRTCExecutableCreator -->
<g id="node2" class="node"><title>\\Slothsoft\\WebRTC\\Executables\\WebRTCExecutableCreator</title>
<polygon fill="none" stroke="black" points="741.856,-156 569.856,-156 569.856,-120 741.856,-120 741.856,-156"/>
<text text-anchor="middle" x="655.856" y="-135.2" font-family="Courier,monospace" font-size="11.00">WebRTCExecutableCreator</text>
</g>
<!-- \\Slothsoft\\Farah\\Module\\Executables\\ExecutableCreator -->
<g id="node5" class="node"><title>\\Slothsoft\\Farah\\Module\\Executables\\ExecutableCreator</title>
<ellipse fill="none" stroke="black" cx="248.928" cy="-138" rx="214.462" ry="18"/>
<text text-anchor="middle" x="248.928" y="-134.3" font-family="Times New Roman,serif" font-size="14.00" fill="gray">\Slothsoft\Farah\Module\Executables\ExecutableCreator</text>
</g>
<!-- \\Slothsoft\\WebRTC\\Executables\\WebRTCExecutableCreator&#45;&gt;\\Slothsoft\\Farah\\Module\\Executables\\ExecutableCreator -->
<g id="edge2" class="edge"><title>\\Slothsoft\\WebRTC\\Executables\\WebRTCExecutableCreator&#45;&gt;\\Slothsoft\\Farah\\Module\\Executables\\ExecutableCreator</title>
<path fill="none" stroke="black" d="M569.476,-138C540.966,-138 507.736,-138 473.694,-138"/>
<polygon fill="none" stroke="black" points="473.593,-134.5 463.593,-138 473.593,-141.5 473.593,-134.5"/>
</g>
<!-- \\Slothsoft\\WebRTC\\Assets\\VideoChatThing -->
<g id="node3" class="node"><title>\\Slothsoft\\WebRTC\\Assets\\VideoChatThing</title>
<polygon fill="none" stroke="black" points="711.356,-76 600.356,-76 600.356,-40 711.356,-40 711.356,-76"/>
<text text-anchor="middle" x="655.856" y="-55.2" font-family="Courier,monospace" font-size="11.00">VideoChatThing</text>
</g>
<!-- \\Slothsoft\\Farah\\Module\\Node\\Asset\\AssetBase -->
<g id="node6" class="node"><title>\\Slothsoft\\Farah\\Module\\Node\\Asset\\AssetBase</title>
<ellipse fill="none" stroke="black" cx="248.928" cy="-58" rx="185.467" ry="18"/>
<text text-anchor="middle" x="248.928" y="-54.3" font-family="Times New Roman,serif" font-size="14.00" fill="gray">\Slothsoft\Farah\Module\Node\Asset\AssetBase</text>
</g>
<!-- \\Slothsoft\\WebRTC\\Assets\\VideoChatThing&#45;&gt;\\Slothsoft\\Farah\\Module\\Node\\Asset\\AssetBase -->
<g id="edge3" class="edge"><title>\\Slothsoft\\WebRTC\\Assets\\VideoChatThing&#45;&gt;\\Slothsoft\\Farah\\Module\\Node\\Asset\\AssetBase</title>
<path fill="none" stroke="black" d="M600.245,-58C559.72,-58 501.816,-58 444.726,-58"/>
<polygon fill="none" stroke="black" points="444.456,-54.5001 434.456,-58 444.456,-61.5001 444.456,-54.5001"/>
</g>
</g>
</svg>
